<svg xmlns="http://www.w3.org/2000/svg" viewBox="0 0 1024 1024" role="img" aria-label="Classroom icon">
  <defs>
    <linearGradient id="bg" x1="0" y1="0" x2="1" y2="1">
      <stop offset="0%" stop-color="#2e6d57"/>
      <stop offset="100%" stop-color="#5a4d9f"/>
    </linearGradient>
    <linearGradient id="board" x1="0" y1="0" x2="0" y2="1">
      <stop offset="0%" stop-color="#2a845a"/>
      <stop offset="100%" stop-color="#1e6645"/>
    </linearGradient>
  </defs>

  <rect x="64" y="64" width="896" height="896" rx="200" fill="url(#bg)"/>

  <rect x="176" y="178" width="672" height="430" rx="34" fill="#f5edd6"/>
  <rect x="212" y="214" width="600" height="304" rx="22" fill="url(#board)"/>

  <line x1="286" y1="306" x2="738" y2="306" stroke="#d9f3df" stroke-width="30" stroke-linecap="round"/>
  <line x1="286" y1="368" x2="654" y2="368" stroke="#d9f3df" stroke-width="30" stroke-linecap="round"/>

  <circle cx="748" cy="432" r="48" fill="#ffe4a8"/>
  <path d="M740 406h16l-3 26h-10z" fill="#6d5d24"/>

  <rect x="298" y="548" width="428" height="30" rx="15" fill="#b3885b"/>
  <rect x="360" y="576" width="42" height="154" rx="16" fill="#9a6f44"/>
  <rect x="622" y="576" width="42" height="154" rx="16" fill="#9a6f44"/>

  <path d="M244 786h536v38H244z" fill="#3a2d2e" opacity="0.35"/>
</svg>
